<mxfile host="app.diagrams.net" agent="Mozilla/5.0 (Windows NT 10.0; Win64; x64) AppleWebKit/537.36 (KHTML, like Gecko) Chrome/135.0.0.0 Safari/537.36" version="26.2.15">
  <diagram name="Page-1" id="e7e014a7-5840-1c2e-5031-d8a46d1fe8dd">
    <mxGraphModel dx="1426" dy="711" grid="1" gridSize="10" guides="1" tooltips="1" connect="1" arrows="1" fold="1" page="1" pageScale="1" pageWidth="1169" pageHeight="826" background="none" math="0" shadow="0">
      <root>
        <mxCell id="0" />
        <mxCell id="1" parent="0" />
        <mxCell id="2" value="Customer" style="swimlane;whiteSpace=wrap" parent="1" vertex="1">
          <mxGeometry x="164.5" y="128" width="280" height="570" as="geometry" />
        </mxCell>
        <mxCell id="Z6MLu3bEFBcf5yVtEW-L-42" value="" style="edgeStyle=orthogonalEdgeStyle;rounded=0;orthogonalLoop=1;jettySize=auto;html=1;" parent="2" source="5" target="7" edge="1">
          <mxGeometry relative="1" as="geometry" />
        </mxCell>
        <mxCell id="5" value="" style="ellipse;shape=startState;fillColor=#000000;strokeColor=#ff0000;" parent="2" vertex="1">
          <mxGeometry x="100" y="40" width="30" height="30" as="geometry" />
        </mxCell>
        <mxCell id="7" value="Nhập email &#xa;và password" style="" parent="2" vertex="1">
          <mxGeometry x="60" y="110" width="110" height="50" as="geometry" />
        </mxCell>
        <mxCell id="Z6MLu3bEFBcf5yVtEW-L-49" style="edgeStyle=orthogonalEdgeStyle;rounded=0;orthogonalLoop=1;jettySize=auto;html=1;entryX=0.5;entryY=1;entryDx=0;entryDy=0;" parent="2" source="10" target="7" edge="1">
          <mxGeometry relative="1" as="geometry" />
        </mxCell>
        <mxCell id="10" value="Thông báo sai&#xa;thông tin" style="" parent="2" vertex="1">
          <mxGeometry x="60" y="220" width="110" height="50" as="geometry" />
        </mxCell>
        <mxCell id="38" value="" style="ellipse;shape=endState;fillColor=#000000;strokeColor=#ff0000" parent="2" vertex="1">
          <mxGeometry x="100" y="512" width="30" height="30" as="geometry" />
        </mxCell>
        <mxCell id="Z6MLu3bEFBcf5yVtEW-L-54" value="" style="edgeStyle=orthogonalEdgeStyle;rounded=0;orthogonalLoop=1;jettySize=auto;html=1;" parent="2" source="Z6MLu3bEFBcf5yVtEW-L-52" target="Z6MLu3bEFBcf5yVtEW-L-53" edge="1">
          <mxGeometry relative="1" as="geometry" />
        </mxCell>
        <mxCell id="Z6MLu3bEFBcf5yVtEW-L-52" value="Hiển thị thông báo&#xa;đăng nhập thành &#xa;công" style="" parent="2" vertex="1">
          <mxGeometry x="60" y="332" width="110" height="50" as="geometry" />
        </mxCell>
        <mxCell id="Z6MLu3bEFBcf5yVtEW-L-55" value="" style="edgeStyle=orthogonalEdgeStyle;rounded=0;orthogonalLoop=1;jettySize=auto;html=1;" parent="2" source="Z6MLu3bEFBcf5yVtEW-L-53" target="38" edge="1">
          <mxGeometry relative="1" as="geometry" />
        </mxCell>
        <mxCell id="Z6MLu3bEFBcf5yVtEW-L-53" value="Tới trang chủ" style="" parent="2" vertex="1">
          <mxGeometry x="60" y="412" width="110" height="50" as="geometry" />
        </mxCell>
        <mxCell id="3" value="Hệ thống" style="swimlane;whiteSpace=wrap" parent="1" vertex="1">
          <mxGeometry x="445" y="128" width="280" height="570" as="geometry" />
        </mxCell>
        <mxCell id="Z6MLu3bEFBcf5yVtEW-L-45" value="" style="edgeStyle=orthogonalEdgeStyle;rounded=0;orthogonalLoop=1;jettySize=auto;html=1;" parent="3" source="8" target="Z6MLu3bEFBcf5yVtEW-L-44" edge="1">
          <mxGeometry relative="1" as="geometry" />
        </mxCell>
        <mxCell id="8" value="Kiểm tra gmail&#xa;và password" style="" parent="3" vertex="1">
          <mxGeometry x="75.5" y="110" width="110" height="50" as="geometry" />
        </mxCell>
        <mxCell id="Z6MLu3bEFBcf5yVtEW-L-58" value="" style="edgeStyle=orthogonalEdgeStyle;rounded=0;orthogonalLoop=1;jettySize=auto;html=1;" parent="3" source="Z6MLu3bEFBcf5yVtEW-L-44" target="Z6MLu3bEFBcf5yVtEW-L-57" edge="1">
          <mxGeometry relative="1" as="geometry" />
        </mxCell>
        <mxCell id="Z6MLu3bEFBcf5yVtEW-L-44" value="" style="rhombus;whiteSpace=wrap;html=1;" parent="3" vertex="1">
          <mxGeometry x="90.5" y="205" width="80" height="80" as="geometry" />
        </mxCell>
        <mxCell id="Z6MLu3bEFBcf5yVtEW-L-50" value="Sai" style="text;html=1;align=center;verticalAlign=middle;whiteSpace=wrap;rounded=0;" parent="3" vertex="1">
          <mxGeometry x="30.5" y="205" width="60" height="30" as="geometry" />
        </mxCell>
        <mxCell id="Z6MLu3bEFBcf5yVtEW-L-56" value="Đúng" style="text;html=1;align=center;verticalAlign=middle;whiteSpace=wrap;rounded=0;" parent="3" vertex="1">
          <mxGeometry x="65.5" y="302" width="60" height="30" as="geometry" />
        </mxCell>
        <mxCell id="Z6MLu3bEFBcf5yVtEW-L-57" value="Tạo token và gửi&#xa;về client" style="" parent="3" vertex="1">
          <mxGeometry x="75.5" y="342" width="110" height="50" as="geometry" />
        </mxCell>
        <mxCell id="Z6MLu3bEFBcf5yVtEW-L-43" style="edgeStyle=orthogonalEdgeStyle;rounded=0;orthogonalLoop=1;jettySize=auto;html=1;entryX=0;entryY=0.5;entryDx=0;entryDy=0;" parent="1" source="7" target="8" edge="1">
          <mxGeometry relative="1" as="geometry" />
        </mxCell>
        <mxCell id="Z6MLu3bEFBcf5yVtEW-L-48" style="edgeStyle=orthogonalEdgeStyle;rounded=0;orthogonalLoop=1;jettySize=auto;html=1;entryX=1;entryY=0.5;entryDx=0;entryDy=0;" parent="1" source="Z6MLu3bEFBcf5yVtEW-L-44" target="10" edge="1">
          <mxGeometry relative="1" as="geometry" />
        </mxCell>
        <mxCell id="Z6MLu3bEFBcf5yVtEW-L-59" style="edgeStyle=orthogonalEdgeStyle;rounded=0;orthogonalLoop=1;jettySize=auto;html=1;entryX=1;entryY=0.5;entryDx=0;entryDy=0;" parent="1" source="Z6MLu3bEFBcf5yVtEW-L-57" target="Z6MLu3bEFBcf5yVtEW-L-52" edge="1">
          <mxGeometry relative="1" as="geometry">
            <mxPoint x="480" y="485" as="targetPoint" />
            <Array as="points">
              <mxPoint x="500.5" y="485" />
              <mxPoint x="500.5" y="486" />
            </Array>
          </mxGeometry>
        </mxCell>
        <mxCell id="Z6MLu3bEFBcf5yVtEW-L-60" value="Chức năng đăng nhập" style="rounded=0;whiteSpace=wrap;html=1;" parent="1" vertex="1">
          <mxGeometry x="164.5" y="68" width="565.5" height="60" as="geometry" />
        </mxCell>
      </root>
    </mxGraphModel>
  </diagram>
</mxfile>
